<?xml version="1.0" standalone="no"?>
<!DOCTYPE svg PUBLIC "-//W3C//DTD SVG 20010904//EN"
 "http://www.w3.org/TR/2001/REC-SVG-20010904/DTD/svg10.dtd">
<svg version="1.0" xmlns="http://www.w3.org/2000/svg"
 width="256.000000pt" height="256.000000pt" viewBox="0 0 256.000000 256.000000"
 preserveAspectRatio="xMidYMid meet">
<metadata>
Created by potrace 1.11, written by Peter Selinger 2001-2013
</metadata>
<g transform="translate(0.000000,256.000000) scale(0.100000,-0.100000)"
fill="#000000" stroke="none">
<path d="M1660 2059 c-94 -39 -132 -164 -76 -249 95 -144 310 -62 294 111 -8
83 -64 139 -145 145 -26 2 -59 -1 -73 -7z"/>
<path d="M1155 1903 c-232 -37 -404 -147 -519 -331 -26 -42 -64 -129 -72 -167
-43 -192 -20 -374 68 -533 183 -335 571 -469 914 -317 62 27 172 99 219 143
174 161 277 405 262 616 -16 223 -136 356 -325 362 -108 3 -208 -33 -337 -120
-110 -73 -245 -216 -245 -258 0 -17 4 -19 30 -13 17 4 90 35 163 70 216 103
318 128 396 96 45 -19 63 -59 60 -134 -4 -114 -66 -242 -165 -340 -126 -124
-379 -182 -554 -128 -240 75 -383 335 -323 591 14 64 51 152 65 158 4 2 8 9 8
16 0 20 118 144 164 174 66 43 124 72 141 72 10 0 13 5 9 12 -4 6 -3 9 2 5 5
-3 39 3 74 13 59 17 61 19 25 17 -22 0 -49 -3 -60 -4z"/>
</g>
</svg>
